<?xml version="1.0" standalone="no"?>
<!DOCTYPE svg PUBLIC "-//W3C//DTD SVG 20010904//EN"
 "http://www.w3.org/TR/2001/REC-SVG-20010904/DTD/svg10.dtd">
<svg version="1.0" xmlns="http://www.w3.org/2000/svg"
 width="512.000000pt" height="512.000000pt" viewBox="0 0 512.000000 512.000000"
 preserveAspectRatio="xMidYMid meet">
<metadata>
Created by potrace 1.11, written by Peter Selinger 2001-2013
</metadata>
<g transform="translate(0.000000,512.000000) scale(0.100000,-0.100000)"
fill="#000000" stroke="none">
<path d="M0 2560 l0 -2560 2560 0 2560 0 0 2560 0 2560 -2560 0 -2560 0 0
-2560z m4098 233 c254 -625 458 -1141 454 -1145 -5 -5 -87 -7 -183 -6 l-174 3
-129 343 -130 342 -467 0 -466 0 -124 -345 -123 -345 -168 0 c-140 0 -168 2
-168 14 0 13 853 2247 866 2268 3 4 83 8 177 8 l172 0 463 -1137z m-2953 460
c9 -27 102 -300 206 -607 105 -308 193 -565 197 -572 4 -7 102 266 217 607
l210 619 167 0 c92 0 169 -3 171 -7 2 -5 -39 -123 -93 -263 -53 -140 -208
-549 -344 -909 -330 -870 -349 -912 -473 -1035 -86 -85 -144 -109 -277 -114
-65 -3 -132 1 -163 8 l-54 12 3 141 3 142 35 -2 c166 -7 178 -6 223 20 81 47
140 128 202 276 l33 79 -304 803 c-168 442 -307 814 -310 827 l-6 22 170 0
170 0 17 -47z"/>
<path d="M3280 3098 c-95 -266 -175 -489 -178 -495 -3 -10 73 -13 362 -13 216
0 366 4 366 9 0 14 -361 965 -369 974 -5 4 -86 -209 -181 -475z"/>
</g>
</svg>
